<svg width="81" height="27" viewBox="0 0 81 27" fill="none" xmlns="http://www.w3.org/2000/svg">
<path d="M18.6874 26.6845H0.918945C14.2242 18.8532 19.6979 0.158203 28.7926 0.158203C32.7505 0.158203 35.7821 2.68467 36.2874 5.54768C31.4871 3.18978 27.1086 7.40031 27.1086 12.7898C27.1086 14.9791 27.6983 17.0003 28.7087 18.769C26.4349 21.2108 23.9084 23.4847 21.0454 25.1689L18.6874 26.6845ZM80.9189 26.7685C74.0134 23.9896 69.2137 19.2738 69.2137 12.8741C69.2137 7.48461 73.5928 3.27408 78.3925 5.63198C77.8873 2.76897 74.8556 0.242503 70.8977 0.242503C61.803 0.242503 56.3295 18.9372 43.0241 26.7688L80.9189 26.7685ZM42.1821 25.2524C45.0451 23.5684 47.5716 21.2945 49.8454 18.8526C48.8351 17.0839 48.2453 15.0633 48.2453 12.8733C48.2453 7.48386 52.6244 3.27333 57.4241 5.63122C56.9189 2.76822 53.8872 0.24175 49.9293 0.24175C40.8346 0.24175 35.3611 18.9365 22.0556 26.7681H39.8241L42.1821 25.2524Z" fill="#09BEF8"/>
</svg>
