<svg width="97" height="99" viewBox="0 0 97 99" fill="none" xmlns="http://www.w3.org/2000/svg">
<path d="M18.1982 42.6408C18.1644 43.9132 18.4114 45.0603 18.7344 46.0912C19.4023 48.1512 20.3706 49.7969 21.2128 51.3341C22.063 52.8575 22.8533 54.2432 23.3698 55.5537C23.8756 56.8566 24.1606 58.09 23.9371 59.1257C23.7485 60.1663 23.1415 61.0081 22.4732 61.6508C22.298 61.8078 22.1294 61.9596 21.9676 62.106C21.7919 62.2382 21.6125 62.3578 21.444 62.4781C21.116 62.7296 20.7908 62.9146 20.4965 63.0782C19.9335 63.4256 19.4024 63.6422 19.0732 63.8022C18.7374 63.9591 18.5637 64.0392 18.5637 64.0392C18.3321 64.1505 18.2066 64.4156 18.2914 64.6458C18.3822 64.8949 18.6689 65.0156 18.9324 64.9172C18.9324 64.9172 19.1121 64.8525 19.4594 64.7239C19.8091 64.5897 20.3161 64.4366 21.0114 64.0972C21.3585 63.9429 21.7448 63.7645 22.1404 63.5152C22.3413 63.3965 22.5541 63.2791 22.7721 63.1393C22.9814 62.9857 23.1989 62.8231 23.4241 62.6547C24.2956 61.9617 25.2579 60.8952 25.6751 59.4308C25.8006 59.0714 25.8203 58.6958 25.8917 58.3105C25.8932 57.9383 25.9413 57.5357 25.8929 57.1532C25.8756 56.9601 25.8579 56.7651 25.8385 56.567C25.8138 56.3718 25.771 56.183 25.7373 55.9868C25.6737 55.5901 25.561 55.2147 25.4554 54.8227C24.9995 53.2775 24.2962 51.7559 23.5893 50.1664C22.8935 48.5866 22.1346 46.9239 21.7541 45.2131C21.5699 44.3598 21.4811 43.5024 21.5769 42.6988C21.6696 41.8935 21.9634 41.1656 22.451 40.4883C22.5125 40.4025 22.5601 40.3122 22.6299 40.23L22.8529 39.9876L23.0713 39.7421L23.1131 39.6949L23.1245 39.6856L23.2847 39.54C23.4984 39.3455 23.7301 39.1279 23.886 39.0268L24.1448 38.8271L24.4424 38.628C25.2381 38.0926 26.1069 37.7138 27.0223 37.5259C28.8444 37.1314 30.8861 37.4993 32.766 38.4805C34.6423 39.4527 36.3784 40.9475 37.6616 42.7362C37.8167 42.96 37.9764 43.1847 38.1171 43.4175L38.2236 43.5899L38.2762 43.6774L38.3041 43.722C38.3592 43.8103 38.2579 43.6468 38.28 43.685L38.5119 44.1158L38.975 44.9784L39.3005 45.7271L39.4665 46.1017L39.6158 46.5089L39.9173 47.3358C40.0697 47.9032 40.2719 48.4578 40.3819 49.0435C41.48 53.6679 40.8713 58.8806 38.8355 63.5471L38.4055 64.5178L38.2956 64.7675L38.2411 64.8919L38.1699 65.0697L37.8971 65.8156C37.6075 66.6982 37.3946 67.5589 37.2395 68.4182C36.9451 70.1279 36.8477 71.8173 36.9425 73.4927C37.0319 75.1671 37.2931 76.8331 37.7765 78.4853C38.2463 80.1355 38.9587 81.7769 39.99 83.3431C41.0361 84.8964 42.4522 86.4002 44.3489 87.4766C45.2853 88.0143 46.3255 88.4473 47.4084 88.714C47.9477 88.8696 48.4946 88.9524 49.0435 89.0389C49.3201 89.0851 49.5908 89.0922 49.8644 89.1164L50.2775 89.1452L50.3799 89.1509C50.4673 89.1536 50.3286 89.1575 50.6028 89.1562L50.7417 89.155L51.3073 89.1627L51.4579 89.1637L51.6994 89.1492L52.1808 89.1162C52.8647 89.0725 53.3701 88.9698 53.9332 88.8729C55.0295 88.6344 56.1135 88.2974 57.1077 87.8407C59.108 86.9378 60.805 85.6942 62.1899 84.3754C63.5934 83.0527 64.7383 81.6435 65.7287 80.221C66.7303 78.7982 67.5509 77.3411 68.2712 75.8832C68.997 74.4228 69.6226 72.9567 70.1427 71.4748C70.4076 70.7356 70.6496 69.9907 70.8637 69.2396C70.9718 68.8659 71.0759 68.4876 71.1738 68.1072L71.3171 67.5359L71.3858 67.2499L71.4021 67.1777L71.4631 66.8674L71.4837 66.7425L71.6546 65.7365C71.7105 65.3908 71.7717 65.1112 71.8172 64.6459C71.8613 64.2219 71.9046 63.7977 71.9492 63.3769L72.003 62.7435L72.0185 62.1441C72.0392 61.3483 72.068 60.5556 71.9995 59.7576C71.9717 59.3612 71.9571 58.9648 71.9142 58.5701C71.8614 58.1741 71.8075 57.7809 71.7526 57.3896C71.6683 56.6028 71.4524 55.8348 71.281 55.0725C71.0789 54.3175 70.8338 53.5774 70.5859 52.8494C70.0309 51.418 69.3851 50.0467 68.6228 48.8061C67.1371 46.2885 65.3152 44.2135 63.4991 42.4109C62.573 41.519 61.6444 40.6892 60.7148 39.918C60.2819 39.5586 59.8557 39.2024 59.4318 38.8503C59.0614 38.5352 58.6939 38.2225 58.3313 37.9161C56.9139 36.6313 55.7314 35.3424 54.9954 34.1098C54.9019 33.9564 54.8085 33.8031 54.7168 33.6515C54.638 33.503 54.5881 33.3573 54.5173 33.2104L54.4171 32.9898L54.3637 32.8803L54.3366 32.8248L54.3233 32.7983C54.297 32.6536 54.3458 32.9654 54.3367 32.9169C54.2959 32.7436 54.2507 32.5722 54.208 32.4028C54.2008 32.3539 54.1765 32.3638 54.17 32.2656L54.1387 32.0275C54.1117 31.8721 54.1144 31.6856 54.0972 31.5169C54.0794 31.1621 54.0802 30.7959 54.0935 30.4274C54.1571 29.2258 54.3706 28.0361 54.6796 27.0774C56.3129 26.9699 58.3973 26.389 59.7996 24.3775C62.4074 20.6329 59.6543 19.8536 59.4835 16.1875C59.3267 12.7813 60.4494 10.1466 57.7414 9.02246C58.0509 7.9483 59.0527 5.01848 61.2176 3.11533L58.1316 4.8L56.3029 1.79935C57.2261 4.53 56.6275 7.56826 56.3609 8.65395C53.4537 8.27142 53.1105 11.1141 51.2686 13.9874C49.2888 17.0764 46.5143 16.3763 46.9013 20.9212C47.1047 23.3129 48.562 24.8446 49.8976 25.7591C49.1971 26.9927 48.68 28.3033 48.2732 29.7358C48.1368 30.2431 48.0133 30.7653 47.9151 31.3182C47.8755 31.6014 47.8247 31.8737 47.7991 32.1774L47.7617 32.6324C47.7437 32.7657 47.751 33.0057 47.751 33.1907L47.7658 33.7168L47.7789 34.0707L47.8877 34.6786L47.9773 35.142C48.0427 35.4511 48.0985 35.7763 48.1819 36.0792C48.2819 36.3683 48.3794 36.6617 48.4797 36.9576C49.3269 39.3002 50.6682 41.3406 52.1876 43.2106C52.5732 43.6705 53.007 44.1753 53.3881 44.6058C53.7624 45.0171 54.1412 45.4315 54.5234 45.8516C55.2351 46.6238 55.9163 47.424 56.5678 48.2455C57.8894 49.8708 59.0212 51.6148 59.8931 53.4126C60.7515 55.2223 61.3075 57.0944 61.494 59.0953L61.5659 59.8473C61.5815 60.1015 61.5738 60.3613 61.5794 60.6177C61.6084 61.1273 61.5785 61.6582 61.5522 62.1905L61.5374 62.5892L61.4938 62.9585C61.4635 63.2022 61.4411 63.4475 61.4205 63.6911C61.4166 63.8972 61.3389 64.2847 61.2871 64.6085L61.1179 65.6149L61.1049 65.6831L61.0761 65.8205L60.9776 66.2508C60.9104 66.5394 60.8388 66.83 60.7604 67.1209C60.6035 67.7014 60.4405 68.2883 60.2587 68.8741C59.8904 70.0423 59.4873 71.2117 59.0121 72.3424C58.5404 73.4753 58.0022 74.5706 57.4211 75.5936C56.8382 76.6197 56.1847 77.5623 55.4865 78.3487C54.7928 79.1491 54.0548 79.7566 53.333 80.1797C52.9723 80.4012 52.6055 80.5348 52.2327 80.6676C52.0536 80.7103 51.8187 80.7859 51.7481 80.7953L51.6675 80.8237L51.6259 80.84C51.5986 80.8446 51.5372 80.8459 51.4942 80.8512L50.9284 80.8854L50.7998 80.8947L50.6807 80.8965C50.5817 80.8943 50.4718 80.9131 50.3782 80.9008C50.1887 80.8832 49.987 80.8894 49.8095 80.8467C49.4353 80.7933 49.0917 80.6755 48.7442 80.5174C48.0519 80.2045 47.3705 79.6298 46.7559 78.8567C45.5481 77.276 44.7378 74.9659 44.4798 72.6162C44.3358 71.4396 44.343 70.242 44.4637 69.1044C44.5309 68.54 44.6368 67.9896 44.7659 67.4879C44.7943 67.3934 44.8212 67.2997 44.8441 67.2027C44.8517 67.176 44.8525 67.1616 44.8657 67.1253L44.9125 66.9971L45.0104 66.7437L45.4041 65.6956C47.6896 59.5987 47.9137 53.0879 46.1198 47.3755C45.9227 46.6546 45.625 45.9673 45.374 45.2725L44.9195 44.2605L44.6891 43.7563L44.4165 43.2429L43.8664 42.2274L43.3391 41.4012L43.0768 40.9866C43.0795 40.9913 42.9571 40.7926 42.9875 40.849L42.9467 40.7916L42.864 40.676L42.6975 40.4469C42.4786 40.1391 42.24 39.8504 42.0042 39.5616C40.0863 37.2781 37.7109 35.5054 34.9917 34.3596C33.6317 33.7908 32.1738 33.3993 30.6563 33.2563C29.1452 33.1209 27.5685 33.2321 26.0952 33.6771C24.6178 34.1029 23.2726 34.8314 22.1613 35.7076C21.623 36.1063 20.9832 36.7172 20.6502 37.0832L20.5006 37.2387L20.464 37.278C20.31 37.438 20.398 37.3523 20.3525 37.4016L20.2724 37.5072L19.9476 37.9237L19.6316 38.3399C19.5319 38.4827 19.4499 38.6417 19.3585 38.7928C18.629 39.9859 18.221 41.3703 18.198 42.6413L18.1982 42.6408ZM51.6199 17.5462C50.7978 18.0202 49.9755 18.1383 49.7848 17.808C49.5941 17.4777 50.1073 16.8241 50.9291 16.3496C51.7533 15.8744 52.573 15.7565 52.7643 16.0878C52.9541 16.4179 52.4425 17.0706 51.6199 17.5462ZM57.1355 17.259C57.4647 17.0689 58.1188 17.5805 58.5939 18.4034C59.0688 19.2271 59.1871 20.0472 58.8557 20.2385C58.5265 20.4286 57.8739 19.9162 57.3973 19.0942C56.9244 18.2715 56.8052 17.4497 57.1355 17.259Z" fill="#256178"/>
</svg>
