<svg width="71" height="71" viewBox="0 0 71 71" fill="none" xmlns="http://www.w3.org/2000/svg">
<path d="M29.607 17.7813C24.456 13.4569 10.0419 3.12287 3.64335 5.87269C2.39285 6.2654 1.35538 7.14976 0.769926 8.32266C0.0840028 10.1424 1.32721 12.7226 2.64283 15.4543C3.90584 17.6949 4.75214 20.146 5.1412 22.6881C5.92712 32.9384 6.1141 35.3743 23.8289 37.1572C24.4987 37.2186 24.9966 37.803 24.9518 38.4738C24.907 39.1441 24.3352 39.6566 23.6638 39.6285C23.569 39.6295 13.1842 39.3853 8.29338 45.3732L8.00484 45.7258C4.26369 50.296 0.0226834 55.4762 6.01166 62.2229C8.08764 64.4926 9.33975 67.3952 9.56575 70.4629C10.9756 68.7051 12.4797 67.025 14.0725 65.4307C15.8277 63.924 17.9027 62.8365 20.1401 62.2511C25.075 60.5183 29.7373 58.8803 29.7427 49.2408C29.163 45.3106 29.1609 41.317 29.738 37.3863L29.9322 36.2103C31.1645 28.7692 31.6743 25.6891 29.8786 19.4892C29.7171 18.934 29.6255 18.3606 29.6057 17.7819L29.607 17.7813ZM17.0926 28.8296C15.5082 28.816 13.9943 28.1749 12.8818 27.0463C11.7698 25.9182 11.15 24.3947 11.1594 22.8103C11.1688 21.2259 11.8057 19.7098 12.9307 18.5948C14.0557 17.4792 15.5776 16.8552 17.1618 16.8599C18.7462 16.8646 20.2639 17.4974 21.3826 18.6192C22.5013 19.7416 23.1295 21.2613 23.1289 22.8457C23.1201 24.4388 22.4795 25.9633 21.3478 27.0852C20.2165 28.2071 18.6858 28.8341 17.0926 28.8294V28.8296ZM17.0926 56.0852C15.8723 56.0742 14.7063 55.5805 13.85 54.7112C12.9932 53.8425 12.5162 52.6691 12.5235 51.4487C12.5302 50.2284 13.0209 49.0607 13.8874 48.2018C14.7541 47.343 15.926 46.8622 17.1462 46.8658C18.3665 46.8695 19.5352 47.3565 20.3972 48.2205C21.2587 49.0846 21.7425 50.2554 21.7425 51.4751C21.7358 52.7027 21.242 53.8772 20.3707 54.7412C19.4988 55.6053 18.3202 56.0885 17.0926 56.0844L17.0926 56.0852Z" fill="#8C58FD"/>
<path d="M47.3203 37.1569C65.0348 35.3742 65.2214 32.9382 66.0081 22.6878C66.3971 20.1452 67.2435 17.6942 68.5064 15.4535C69.822 12.7218 71.0663 10.1416 70.3799 8.32189H70.3804C69.795 7.14899 68.7575 6.26459 67.507 5.87193C61.1117 3.11783 46.6953 13.4551 41.5433 17.7806H41.5428C41.5236 18.3592 41.4319 18.9331 41.2704 19.4888C39.4735 25.6887 39.984 28.7693 41.2178 36.2126L41.4121 37.3849C41.9918 41.3469 41.9855 45.3728 41.3928 49.3337C41.397 58.957 46.0501 60.5633 50.9771 62.2632C53.2964 63.0632 55.4849 63.8179 57.0754 65.4299L57.0759 65.4294C58.668 67.0241 60.1728 68.7038 61.5826 70.4615C61.8087 67.3939 63.0608 64.4914 65.1367 62.2215C71.1252 55.4758 66.8846 50.2957 63.1436 45.7244L62.8545 45.3713C57.9488 39.3646 47.5894 39.6209 47.4854 39.6266C46.8234 39.6287 46.2667 39.1292 46.1979 38.4709C46.1568 37.8016 46.6526 37.2204 47.3198 37.1558L47.3203 37.1569ZM54.0572 16.8599C55.6416 16.874 57.1555 17.5151 58.2675 18.6437C59.38 19.7718 59.9992 21.2953 59.9899 22.8797C59.981 24.4635 59.3441 25.9796 58.2186 27.0952C57.0936 28.2103 55.5722 28.8343 53.988 28.8296C52.4036 28.8249 50.8859 28.1926 49.7672 27.0708C48.6486 25.949 48.0203 24.4293 48.0203 22.8449C48.0292 21.2517 48.6698 19.7267 49.8015 18.6043C50.9333 17.4824 52.464 16.8554 54.0572 16.86V16.8599ZM54.0572 46.8648V46.8653C55.2775 46.8757 56.4441 47.3695 57.3003 48.2382C58.1571 49.1075 58.6342 50.2809 58.6274 51.5013C58.6201 52.721 58.13 53.8892 57.2634 54.7481C56.3968 55.6075 55.2249 56.0877 54.0047 56.0845C52.7844 56.0809 51.6151 55.5934 50.7536 54.7293C49.8922 53.8653 49.4083 52.695 49.4083 51.4747C49.4151 50.2471 49.9083 49.0726 50.7796 48.2086C51.6515 47.3446 52.8301 46.8613 54.0572 46.8655L54.0572 46.8648Z" fill="#8C58FD"/>
<path d="M38.751 36.614C37.4911 29.0111 36.9161 25.5407 38.8677 18.805C39.2458 17.7362 39.0864 16.5519 38.4406 15.6206C38.4026 15.5664 38.351 15.5274 38.3104 15.4763C40.3082 9.78108 43.8467 2.94104 46.7176 2.94104C47.0483 2.94417 47.3665 2.815 47.6014 2.5822C47.8368 2.34991 47.9686 2.03272 47.9686 1.70199C47.9686 1.37127 47.8369 1.05408 47.6014 0.821794C47.3665 0.588984 47.0483 0.459826 46.7176 0.462946C41.6541 0.462946 37.7708 9.52788 36.1 14.2187C35.7547 14.138 35.3948 14.138 35.0495 14.2187C33.3787 9.52762 29.4955 0.462946 24.4319 0.462946C24.1012 0.459821 23.783 0.588986 23.5481 0.821794C23.3132 1.05408 23.1809 1.37127 23.1809 1.70199C23.1809 2.03272 23.3132 2.34991 23.5481 2.5822C23.783 2.81501 24.1012 2.94416 24.4319 2.94104C27.3032 2.94104 30.8412 9.78054 32.8386 15.4763C32.798 15.5279 32.7459 15.567 32.7079 15.6216V15.6211C32.0626 16.5524 31.9037 17.7367 32.2813 18.8049C34.2324 25.5398 33.6578 29.0095 32.3996 36.6113L32.2053 37.7858C30.9199 45.5936 32.8449 54.9616 35.575 61.7468C38.3052 54.96 40.2301 45.5924 38.9443 37.7831L38.751 36.614Z" fill="#8C58FD"/>
</svg>
