<svg width="60" height="81" viewBox="0 0 60 81" fill="none" xmlns="http://www.w3.org/2000/svg">
<path d="M36.2218 0.463049C36.2218 0.463049 31.0878 3.91114 31.8363 10.533C32.5412 16.7736 35.2428 19.8559 35.2428 19.8559C35.2428 19.8559 39.4131 17.0416 37.1835 9.4708C36.2026 6.14303 35.4772 5.78526 36.2219 0.462891L36.2218 0.463049Z" fill="#EB6024"/>
<path d="M42.6107 12.3048C42.6107 12.3048 43.0026 14.3385 41.5957 17.5472C40.1857 20.754 43.5489 23.5702 43.5489 23.5702C43.5483 23.5708 48.6344 18.0153 42.6107 12.3047L42.6107 12.3048Z" fill="#EB6024"/>
<path d="M58.9724 47.1898C54.9049 60.1783 50.3668 62.1339 50.3668 62.1339C63.1198 38.1165 40.1183 22.6245 40.1183 22.6245C50.8381 37.7243 42.7776 50.6355 42.7776 50.6355C42.7776 50.6355 47.7845 39.9157 34.9534 28.6514C20.6385 15.4278 27.7559 4.55469 27.7559 4.55469C15.1623 8.85706 14.7704 20.2026 17.3487 24.7388C24.7823 37.0998 21.888 43.126 21.888 43.126C21.7305 40.3867 19.698 38.3517 13.2838 33.7356C6.86694 29.1194 10.8544 20.6702 10.8544 20.6702C6.71123 23.2527 3.0333 31.7013 8.04012 37.5701C17.1937 48.9925 9.60448 55.5637 9.60448 55.5637C12.6564 42.8889 0.918945 40.072 0.918945 40.072C9.99511 47.4269 1.62578 52.9038 3.03195 61.5069C5.69131 81.7735 29.0065 80.4449 29.0065 80.4449C29.6705 80.4387 30.2974 80.3978 30.9317 80.365C22.1632 80.3426 19.7227 74.867 21.889 72.772C21.889 72.772 25.4481 69.6885 21.1537 64.3301C18.8043 61.5734 20.5305 57.6101 22.4744 56.4004C22.4744 56.4004 20.6031 60.3637 23.6128 62.5301C26.6237 64.6964 27.5778 65.6494 27.6499 66.9342C27.6499 66.9342 29.0084 64.1056 25.5201 58.3082C24.3104 56.1809 24.4933 50.8566 30.4035 48.839C30.4035 48.839 27.0634 53.9395 33.7797 60.1453C39.7991 65.428 37.4516 70.4596 37.4516 70.4596C37.4516 70.4596 41.2319 64.4025 36.2028 57.3166C36.2028 57.3166 46.9965 64.5879 41.0138 75.8547C41.0138 75.8547 39.6193 79.0465 34.3514 80.0554C61.1101 76.3656 58.972 47.1905 58.972 47.1905L58.9724 47.1898Z" fill="#EB6024"/>
</svg>
