<svg width="71" height="71" viewBox="0 0 71 71" fill="none" xmlns="http://www.w3.org/2000/svg">
<path fill-rule="evenodd" clip-rule="evenodd" d="M20.8502 34.6912L3.02244 52.519C1.40906 54.1323 0.588623 56.2654 0.588623 58.3982C0.588623 60.531 1.39531 62.6641 3.02244 64.2774L6.76884 68.0238C8.38222 69.6371 10.5152 70.4576 12.648 70.4576C14.781 70.4576 16.914 69.6509 18.5272 68.0238L68.1436 18.4074C69.757 16.794 70.5774 14.661 70.5774 12.5282C70.5774 10.3954 69.7708 8.26223 68.1436 6.64897L64.3972 2.90257C62.7839 1.28918 60.6508 0.46875 58.518 0.46875C56.3851 0.46875 54.2521 1.27543 52.6388 2.90257L20.8502 34.6912ZM54.879 10.0263C55.1114 10.874 55.9728 11.3799 56.8204 11.1475C57.6681 10.9151 58.174 10.0537 57.9416 9.20606C57.7092 8.35842 56.8478 7.85246 56.0001 8.08489C55.1524 8.31732 54.6465 9.1787 54.879 10.0263V10.0263ZM56.0412 14.3879C56.2736 15.2356 57.135 15.7415 57.9826 15.5091C58.8303 15.2767 59.3362 14.4153 59.1038 13.5677C58.8714 12.72 58.01 12.2141 57.1623 12.4465C56.3146 12.6789 55.8087 13.5403 56.0412 14.3879ZM61.524 11.2706C60.6763 11.503 60.1704 12.3644 60.4028 13.212C60.6353 14.0597 61.4967 14.5656 62.3443 14.3332C63.192 14.1008 63.6979 13.2394 63.4655 12.3918C63.233 11.5441 62.3716 11.0382 61.524 11.2706V11.2706ZM59.227 8.85043C59.4595 9.69814 60.3208 10.204 61.1685 9.9716C62.0162 9.73917 62.5221 8.87779 62.2896 8.03015C62.0572 7.18245 61.1958 6.67655 60.3482 6.90898C59.5005 7.14141 58.9946 8.0028 59.227 8.85043ZM7.62884 57.1667C7.86127 58.0145 8.72266 58.5203 9.57029 58.2879C10.418 58.0555 10.9239 57.1941 10.6915 56.3465C10.459 55.4988 9.59765 54.9929 8.75001 55.2253C7.90231 55.4577 7.39641 56.3191 7.62884 57.1667ZM9.92582 59.5869C9.07811 59.8193 8.57222 60.6807 8.80465 61.5284C9.03708 62.3761 9.89846 62.8819 10.7461 62.6495C11.5938 62.4171 12.0997 61.5557 11.8673 60.7081C11.6348 59.8604 10.7735 59.3545 9.92582 59.5869ZM14.2874 58.4247C13.4397 58.6571 12.9338 59.5185 13.1663 60.3662C13.3987 61.2139 14.2601 61.7198 15.1077 61.4873C15.9554 61.2549 16.4613 60.3935 16.2289 59.5459C15.9964 58.6982 15.1351 58.1923 14.2874 58.4247ZM13.1252 54.0631C12.2775 54.2955 11.7716 55.1569 12.0041 56.0046C12.2365 56.8523 13.0979 57.3582 13.9455 57.1257C14.7932 56.8933 15.2991 56.0319 15.0667 55.1843C14.8343 54.3366 13.9729 53.8307 13.1252 54.0631Z" fill="#FF6DC5"/>
<path fill-rule="evenodd" clip-rule="evenodd" d="M36.5579 51.9448L52.6501 68.0369C54.2635 69.6503 56.3965 70.4707 58.5293 70.4707C60.6622 70.4707 62.7952 69.6641 64.4085 68.0369L68.1549 64.2905C69.7682 62.6771 70.5887 60.5441 70.5887 58.4113C70.5887 56.2784 69.782 54.1454 68.1549 52.5321L52.0627 36.44L36.5447 51.9579L36.5579 51.9448ZM34.6301 18.9811L18.538 2.8889C16.9246 1.27551 14.7916 0.455078 12.6588 0.455078C10.526 0.455078 8.39285 1.26176 6.77958 2.8889L3.03318 6.63529C1.4198 8.24868 0.599365 10.3817 0.599365 12.5145C0.599365 14.6473 1.40605 16.7804 3.03318 18.3937L19.1253 34.4858L34.6433 18.9679L34.6301 18.9811ZM10.157 16.1645C11.0047 15.9321 11.5106 15.0707 11.2781 14.2231C11.0457 13.3754 10.1843 12.8695 9.33667 13.1019C8.48897 13.3344 7.98307 14.1957 8.2155 15.0434C8.44793 15.8911 9.30932 16.397 10.157 16.1645ZM14.5186 15.0024C15.3663 14.7699 15.8722 13.9085 15.6397 13.0609C15.4073 12.2133 14.5459 11.7073 13.6983 11.9397C12.8506 12.1722 12.3447 13.0336 12.5771 13.8812C12.8095 14.7288 13.6709 15.2348 14.5186 15.0024ZM11.4012 9.51952C11.6336 10.3672 12.495 10.8731 13.3426 10.6407C14.1903 10.4083 14.6963 9.54687 14.4638 8.69924C14.2314 7.85153 13.37 7.34564 12.5224 7.57807C11.6747 7.8105 11.1688 8.67189 11.4012 9.51952V9.51952ZM8.98105 11.8165C9.82875 11.5841 10.3346 10.7227 10.1022 9.87504C9.86979 9.02734 9.0084 8.52144 8.16076 8.75387C7.31306 8.98631 6.80716 9.84769 7.03959 10.6953C7.27203 11.543 8.13341 12.0489 8.98105 11.8165ZM57.2974 63.4147C58.1451 63.1823 58.651 62.3209 58.4185 61.4732C58.1861 60.6255 57.3247 60.1196 56.4771 60.3521C55.6294 60.5845 55.1235 61.4459 55.3559 62.2935C55.5883 63.1412 56.4497 63.6471 57.2974 63.4147ZM59.7175 61.1177C59.9499 61.9654 60.8113 62.4713 61.659 62.2389C62.5067 62.0064 63.0126 61.1451 62.7801 60.2974C62.5477 59.4497 61.6863 58.9438 60.8387 59.1763C59.991 59.4087 59.4851 60.2701 59.7175 61.1177V61.1177ZM58.5553 56.7561C58.7878 57.6038 59.6491 58.1097 60.4968 57.8773C61.3445 57.6448 61.8504 56.7835 61.6179 55.9358C61.3855 55.0882 60.5241 54.5822 59.6765 54.8146C58.8288 55.0471 58.3229 55.9085 58.5553 56.7561ZM54.1937 57.9183C54.4261 58.766 55.2875 59.2719 56.1352 59.0395C56.9829 58.807 57.4888 57.9456 57.2563 57.098C57.0239 56.2503 56.1625 55.7444 55.3149 55.9768C54.4672 56.2093 53.9613 57.0707 54.1937 57.9183Z" fill="#FF6DC5"/>
</svg>
