<svg width="75" height="76" viewBox="0 0 75 76" fill="none" xmlns="http://www.w3.org/2000/svg">
<path d="M25.6211 57.9416C14.064 49.5272 9.40016 38.3755 13.1517 24.0811C14.064 20.5325 14.571 16.7818 14.1658 13.1322C13.8617 9.98964 13.2536 8.16445 12.2394 5.62998C11.2253 3.09551 9.80615 0.865178 9.2998 0.966194C12.1384 8.16445 10.8202 14.4496 8.38755 19.2144C7.67755 20.6337 6.96828 21.9518 6.15721 23.3711C-2.96652 39.389 -0.0268966 54.7985 8.69169 69.7012C13.6594 78.2169 20.2489 77.9127 25.9259 69.6001C26.5341 68.6879 27.1422 67.6737 27.5481 66.6605C29.0678 63.2131 29.2708 60.5768 25.621 57.9412L25.6211 57.9416Z" fill="#BFA055"/>
<path d="M69.0255 23.3711C68.2144 22.053 67.5051 20.6337 66.7952 19.2144C64.3619 14.4496 63.0443 8.16428 65.8829 0.966201C65.3759 0.865077 63.9565 3.09552 62.9433 5.62999C61.9292 8.16446 61.3211 9.98892 61.0169 13.1322C60.7128 16.6808 61.118 20.5327 62.031 24.0811C65.7818 38.3757 61.1188 49.5272 49.5616 57.9417C45.9119 60.5773 46.1149 63.3147 47.4323 66.6602C47.8375 67.6743 48.4463 68.6876 49.0545 69.5999C54.7315 77.9133 61.2198 78.2174 66.2887 69.701C75.2095 54.799 78.15 39.3887 69.0254 23.3709L69.0255 23.3711Z" fill="#BFA055"/>
</svg>
