<svg width="38" height="81" viewBox="0 0 38 81" fill="none" xmlns="http://www.w3.org/2000/svg">
<path d="M1.03114 28.4045C-2.88446 34.1883 4.94674 47.0918 16.6927 42.2863C28.4394 37.3918 28.6169 47.5364 25.4133 51.5407C19.7181 58.7485 21.4091 66.9353 21.4091 66.9353C21.4091 66.9353 23.6337 58.8373 32.5325 50.9176C44.7236 39.9723 33.2444 23.3315 19.0955 30.0946C8.06097 35.3447 7.26025 31.8742 7.17142 29.1157C7.08259 26.3572 11.6208 19.8613 11.6208 19.8613C11.6208 19.8613 4.85743 22.6204 1.03114 28.4044V28.4045Z" fill="#65FFF0"/>
<path d="M9.30709 9.18348C13.4895 13.0096 18.0277 9.89546 19.8073 11.7638C24.1684 15.9468 13.9346 26.2689 13.9346 26.2689C13.9346 26.2689 29.3292 21.2857 27.4608 10.9631C26.3038 4.64466 20.6979 3.75526 14.9134 5.26788C7.17171 7.31443 7.7943 0.462891 7.7943 0.462891C7.7943 0.462891 4.94703 5.09039 9.30701 9.18348H9.30709Z" fill="#65FFF0"/>
<path d="M17.1378 67.1146C10.6419 59.4617 18.3836 48.7832 18.3836 48.7832C18.3836 48.7832 6.81513 51.8981 6.19254 59.1059C5.56932 66.3137 9.30741 66.9369 12.0659 70.8525C14.8243 74.8568 12.956 80.4631 12.956 80.4631C12.9554 80.4625 22.2992 73.2541 17.1377 67.1144L17.1378 67.1146Z" fill="#65FFF0"/>
</svg>
