<svg width="72" height="76" viewBox="0 0 72 76" fill="none" xmlns="http://www.w3.org/2000/svg">
<path d="M69.4204 43.9838L58.9157 46.7976L44.4763 38.4628L58.9157 30.128L69.4204 32.9417L71.5788 24.8699L63.4471 22.6875L65.617 14.5558L57.5569 12.3859L54.7423 22.8906L40.3037 31.2369V14.5558L47.9937 6.86571L42.0918 0.962891L36.13 6.92468L30.1682 0.962891L24.2662 6.86571L31.9563 14.5558V31.2369L17.5177 22.8906L14.6916 12.3859L6.64295 14.5558L8.81282 22.6875L0.681152 24.8699L2.83953 32.9417L13.3442 30.128L27.7837 38.4628L13.3442 46.7976L2.83953 43.9838L0.681152 52.0557L8.81282 54.2381L6.64295 62.3815L14.6916 64.5399L17.5177 54.0352L31.9563 45.6889V62.37L24.2662 70.0601L30.1682 75.9629L36.13 70.0011L42.0918 75.9629L47.9937 70.0601L40.3037 62.37V45.6889L54.7423 54.0352L57.5569 64.5399L65.617 62.3815L63.4471 54.2381L71.5788 52.0557L69.4204 43.9838Z" fill="#D00202"/>
</svg>
