<svg width="76" height="76" viewBox="0 0 76 76" fill="none" xmlns="http://www.w3.org/2000/svg">
<path d="M18.8617 38.4619L15.2431 32.7695L0.919067 38.4619L15.2431 44.1543L18.8617 38.4619Z" fill="#C3B82D"/>
<path d="M15.1604 57.4241L11.9022 64.9778L19.4558 61.7195H19.4571C17.8825 60.4369 16.4429 58.9972 15.1601 57.4238L15.1604 57.4241Z" fill="#C3B82D"/>
<path d="M64.933 11.9453L57.3794 15.2035C58.9539 16.4862 60.3936 17.9258 61.6764 19.4992L64.933 11.9453Z" fill="#C3B82D"/>
<path d="M57.9763 38.4619L61.5949 44.1543L75.9189 38.4619L61.5949 32.7695L57.9763 38.4619Z" fill="#C3B82D"/>
<path d="M38.4192 18.9042L44.1115 15.2869L38.4192 0.962891L32.7268 15.2869L38.4192 18.9042Z" fill="#C3B82D"/>
<path d="M15.1604 19.5027C16.4431 17.927 17.884 16.4873 19.4584 15.2048L11.9022 11.9453L15.1604 19.5027Z" fill="#C3B82D"/>
<path d="M43.4324 38.4628C43.4324 41.2317 41.1884 43.4771 38.4181 43.4771C35.6479 43.4771 33.4038 41.2318 33.4038 38.4628C33.4038 35.6927 35.6479 33.4473 38.4181 33.4473C41.1884 33.4473 43.4324 35.6925 43.4324 38.4628Z" fill="#C3B82D"/>
<path d="M61.5427 47.8705C60.7763 48.1746 59.902 47.8914 59.4593 47.1961L54.4943 39.3835C54.1362 38.8206 54.1362 38.1033 54.4943 37.5416L59.4606 29.729H59.4593C59.902 29.0325 60.7763 28.7492 61.5427 29.0546L63.5489 29.8517C60.9002 22.0833 54.7995 15.9826 47.0312 13.334L47.8283 15.3401C48.1324 16.1066 47.8491 16.9809 47.1539 17.4223L39.3412 22.3886C38.7796 22.7454 38.061 22.7454 37.4994 22.3886L29.6868 17.4223C28.9915 16.9809 28.7082 16.1066 29.0124 15.3401L29.8094 13.334C22.0424 15.9839 15.9416 22.0846 13.2917 29.8517L15.2979 29.0546C16.0643 28.7493 16.9387 29.0325 17.3813 29.729L22.3476 37.5416H22.3464C22.7044 38.1033 22.7044 38.8206 22.3464 39.3835L17.3801 47.1961H17.3813C16.9386 47.8914 16.0643 48.1747 15.2979 47.8705L13.2918 47.0734C15.9405 54.8418 22.0411 60.9426 29.8094 63.5911L29.0124 61.585C28.7083 60.8186 28.9915 59.9442 29.6868 59.5016L37.4994 54.5353C38.061 54.1785 38.7796 54.1785 39.3413 54.5353L47.1539 59.5003C47.8491 59.943 48.1324 60.8173 47.8283 61.5825L47.0312 63.5887V63.5899C54.8008 60.9424 60.9016 54.8405 63.5489 47.0709L61.5427 47.8705ZM38.4204 46.9104C36.18 46.9104 34.0327 46.0201 32.4486 44.4358C30.8655 42.8514 29.9753 40.7029 29.9753 38.4627C29.9765 36.2236 30.8655 34.075 32.4499 32.491C34.033 30.9079 36.1815 30.0176 38.4216 30.0176C40.662 30.0176 42.8093 30.9066 44.3934 32.491C45.9777 34.0741 46.868 36.2226 46.868 38.4627C46.8655 40.7019 45.9752 42.8492 44.3909 44.4336C42.8078 46.0167 40.6606 46.9082 38.4201 46.9106L38.4204 46.9104Z" fill="#C3B82D"/>
<path d="M57.3831 61.7205L64.9367 64.9774L61.6798 57.4238H61.6785C60.3971 58.9983 58.9575 60.438 57.3828 61.7208L57.3831 61.7205Z" fill="#C3B82D"/>
<path d="M38.4192 58.0195L32.7268 61.6369L38.4192 75.9621L44.1115 61.6369L38.4192 58.0195Z" fill="#C3B82D"/>
</svg>
