<svg width="76" height="76" viewBox="0 0 76 76" fill="none" xmlns="http://www.w3.org/2000/svg">
<path fill-rule="evenodd" clip-rule="evenodd" d="M75.8973 35.641C75.8973 36.7161 75.6284 37.5228 75.0906 38.5979C75.6284 39.4046 75.8973 40.4797 75.8973 41.2858C75.8973 46.3935 70.252 48.8125 64.3381 49.0815C68.3705 53.6513 70.5208 59.2966 67.026 63.0596C66.2193 63.5974 65.4131 64.1347 64.3381 64.4036C64.0692 65.4787 63.5314 66.2855 62.7252 67.0916C59.2304 70.5863 53.5856 68.4355 49.0148 64.4036C48.7459 70.3174 46.3269 75.9629 41.2192 75.9629C40.1441 75.9629 39.3374 75.694 38.2623 75.1562C37.4556 75.694 36.3805 75.9629 35.5744 75.9629C30.4667 75.9629 28.0477 70.3175 27.7788 64.4036C23.209 68.4361 17.5636 70.5863 13.8006 67.0916C13.2628 66.2849 12.7255 65.4787 12.4566 64.4036C11.3815 64.1347 10.5748 63.5969 9.76867 62.7907C6.27392 59.296 8.42469 53.6511 12.4566 49.0804C6.54285 48.8115 0.897339 46.3924 0.897339 41.2848C0.897339 40.2097 1.16624 39.4029 1.70405 38.3279C1.16624 37.5212 0.897339 36.4461 0.897339 35.6399C0.897339 30.5323 6.54272 28.1133 12.4566 27.8443C8.42415 23.2745 6.27392 17.6292 9.76867 13.8662C10.5754 13.3283 11.3816 12.7911 12.4566 12.5222C12.7255 11.4471 13.2633 10.6403 14.0695 9.83422C17.5643 6.33947 23.2091 8.49024 27.7798 12.5222C28.0488 6.6084 30.4678 0.962891 35.5755 0.962891C36.6505 0.962891 37.4573 1.23179 38.5323 1.7696C39.3391 1.23179 40.4142 0.962891 41.2203 0.962891C46.328 0.962891 48.747 6.60827 49.0159 12.5222C53.5857 8.4897 59.2311 6.33947 62.9941 9.83422C63.5319 10.6409 64.0692 11.4471 64.3381 12.5222C65.4131 12.7911 66.2199 13.3289 67.026 14.1351C70.5208 17.6298 68.37 23.2747 64.3381 27.8454C70.2518 28.1143 75.8973 30.5334 75.8973 35.641V35.641ZM42.5637 28.3827C41.2198 28.6516 39.8758 28.3827 38.5313 27.3076C36.9184 28.3827 35.5744 28.6516 34.2304 28.3827C33.6926 29.4578 32.3486 30.2646 30.4667 30.5335C30.1978 32.4153 29.3916 33.4904 28.316 34.2972C28.5849 35.6411 28.316 36.9851 27.2409 38.3296C28.316 39.9425 28.5849 41.2865 28.316 42.6305C29.3911 43.1683 30.1978 44.5123 30.4667 46.3942C32.3486 46.6631 33.4236 47.4693 34.2304 48.5449C35.5744 48.276 36.9184 48.5449 38.2629 49.62C39.8758 48.5449 41.2198 48.276 42.5637 48.5449C43.1015 47.4698 44.4456 46.6631 46.3274 46.3942C46.5963 44.5123 47.4025 43.4373 48.4782 42.6305C48.2093 41.2865 48.4782 39.9425 49.5533 38.598C48.4782 36.9851 48.2093 35.6411 48.4782 34.2972C47.4031 33.7594 46.5963 32.4153 46.3274 30.5335C44.4456 30.2646 43.3705 29.4584 42.5637 28.3827Z" fill="#B5227B"/>
</svg>
