<svg width="76" height="59" viewBox="0 0 76 59" fill="none" xmlns="http://www.w3.org/2000/svg">
<path d="M70.2093 51.2383L52.6231 36.5486L53.2438 35.8245L50.5541 33.7555L50.1404 34.2728C48.899 33.2383 47.6576 32.2038 46.5197 31.0659C59.2438 23.9279 70.1059 15.6521 75.5886 0.238281C67.9334 4.47966 60.3817 9.03139 49.7265 9.13484C47.5541 13.2728 43.3128 18.1348 38.1403 23.3072C32.8645 18.1348 28.7266 13.2728 26.4507 9.13484C15.7955 9.03139 8.34724 4.47966 0.588623 0.238281C6.17483 15.6521 16.9335 23.9279 29.761 31.0659L26.1403 34.2728L25.7266 33.7555L23.0369 35.8245L23.5541 36.5486L5.96793 51.2383L5.03689 49.9969L0.588623 53.2038L4.72655 58.6866L9.07138 55.4797L8.0369 54.0314L27.1748 41.5141L27.7955 42.2383L30.4852 40.2728L30.0714 39.6521L38.1403 35.5142C40.7266 36.9624 43.4162 38.3073 46.1059 39.6521L45.7955 40.2728L48.4852 42.2383L49.0024 41.5141L68.1403 54.0314L67.1059 55.4797L71.5541 58.6866L75.5886 53.2038L71.1404 49.9969L70.2093 51.2383Z" fill="#8CB935"/>
</svg>
