<svg width="81" height="61" viewBox="0 0 81 61" fill="none" xmlns="http://www.w3.org/2000/svg">
<path d="M80.7316 8.91376C80.0422 5.43131 70.0416 -3.26093 37.9853 2.77892C5.93055 8.81763 0.284039 21.1915 0.972144 24.674C1.66106 28.1558 9.02847 39.4798 45.5747 31.8919C82.1209 24.3042 81.4183 12.3951 80.7316 8.91405V8.91376ZM43.5335 24.9975C12.6164 31.3208 7.02342 24.9783 6.62299 22.9494C6.22151 20.9199 11.5578 13.3056 38.6474 8.12475C65.735 2.9443 73.6569 7.59507 74.0588 9.62456C74.4602 11.6529 74.4506 18.6759 43.5335 24.9985V24.9975Z" fill="#11C182"/>
<path d="M16.3057 41.0294C16.3057 41.0294 22.3449 45.9845 36.5932 45.9845C50.8415 45.9845 55.7951 40.4082 55.7951 40.4082C55.7951 40.4082 59.9772 49.7001 37.6774 49.7001C20.1784 49.7001 16.3057 41.0294 16.3057 41.0294V41.0294Z" fill="#11C182"/>
<path d="M20.9518 47.9961C20.9518 47.9961 26.6812 52.9506 36.5917 52.9506C43.4064 52.9506 44.3342 51.8664 44.3342 51.8664C44.3342 51.8664 43.0947 56.0479 34.4223 56.0479C25.7521 56.0479 20.9517 50.0087 20.9517 47.9961H20.9518Z" fill="#11C182"/>
<path d="M23.1201 54.1895C23.1201 54.1895 26.3722 59.2994 34.5794 58.5246C34.5794 58.5246 30.7824 61.7693 26.3717 59.2994C22.5008 57.1315 23.1203 54.1895 23.1203 54.1895L23.1201 54.1895Z" fill="#11C182"/>
<path d="M64.9718 27.6787C61.8486 33.958 39.5972 37.9193 27.937 37.8198C16.7878 37.7233 9.07336 34.4063 9.07336 34.4063C9.07336 34.4063 12.8817 41.8726 33.7859 42.0517C54.6907 42.2312 72.4138 34.176 72.473 27.5162C72.4792 26.5138 72.1562 25.6041 71.5881 24.7695C69.6834 25.7498 67.4892 26.724 64.9728 27.6782L64.9718 27.6787Z" fill="#11C182"/>
<path d="M46.0734 17.8436C33.3753 17.7341 19.7057 22.5729 19.7057 22.5729C29.8045 19.4293 44.69 19.4248 54.695 21.1725C56.8368 20.5282 58.6845 19.8867 60.2639 19.2565C55.9304 18.3423 50.929 17.8866 46.0727 17.8436L46.0734 17.8436Z" fill="#11C182"/>
</svg>
