<svg width="76" height="49" viewBox="0 0 76 49" fill="none" xmlns="http://www.w3.org/2000/svg">
<path d="M46.1882 35.9434C45.2432 36.8778 44.8546 38.2078 45.1601 39.4965C45.4657 40.7862 46.4196 41.8695 47.7146 42.391C45.5006 42.7161 43.4385 41.6133 43.0303 39.8916C42.6298 38.1676 44.018 36.4359 46.1882 35.9436L46.1882 35.9434ZM39.7165 31.5587C38.5739 32.3062 37.8899 33.5365 37.8899 34.8513C37.8899 36.1755 38.5787 37.4058 39.7273 38.1486C37.4819 38.0656 35.7157 36.6133 35.7157 34.8513C35.7205 33.0935 37.4765 31.6465 39.7167 31.5587H39.7165ZM32.5311 27.6807C31.3832 28.4222 30.6986 29.6538 30.6986 30.9732C30.6986 32.2927 31.3874 33.5277 32.5348 34.2705C30.2905 34.1875 28.5291 32.7353 28.5291 30.9732C28.5291 29.2149 30.2905 27.7684 32.5313 27.6807H32.5311ZM45.5239 27.1776C44.3778 27.9263 43.6937 29.1554 43.6937 30.4702C43.6937 31.7896 44.3825 33.0253 45.5299 33.7693C43.291 33.685 41.523 32.234 41.523 30.4702C41.5224 28.7136 43.285 27.2654 45.5239 27.1776ZM26.7434 22.9898C25.6655 23.6928 25.0206 24.8497 25.0206 26.0902C25.0206 27.3301 25.6696 28.4916 26.7481 29.1905C24.6362 29.111 22.9787 27.7477 22.9787 26.0902C22.9787 24.4361 24.6315 23.0729 26.7434 22.9898ZM37.9642 22.7976C36.818 23.5392 36.134 24.7755 36.134 26.0902C36.134 27.4096 36.8228 28.6388 37.9701 29.3828C35.7312 29.2998 33.9633 27.8523 33.9633 26.0902C33.9627 24.3325 35.7253 22.8866 37.9642 22.7976ZM64.349 18.7861C65.7277 18.7861 66.8449 19.9429 66.8449 21.3649C66.8449 22.7869 65.7272 23.9437 64.349 23.9437C62.9667 23.9437 61.8496 22.7868 61.8496 21.3649C61.8484 19.9428 62.9667 18.7861 64.349 18.7861V18.7861ZM45.5229 18.4123C44.3767 19.161 43.6927 20.3902 43.6927 21.7049C43.6927 23.0243 44.3814 24.26 45.5288 25.0041C43.2846 24.9198 41.522 23.4688 41.522 21.7049C41.5214 19.9478 43.284 18.5001 45.5229 18.4123V18.4123ZM32.5301 17.9158C31.3821 18.6574 30.6976 19.8889 30.6976 21.2084C30.6976 22.5278 31.3863 23.757 32.5337 24.501C30.2948 24.4179 28.5281 22.9704 28.5281 21.2084C28.5281 19.4506 30.2895 17.9989 32.5302 17.9158H32.5301ZM39.7154 14.0324C38.5728 14.774 37.8889 16.0102 37.8889 17.325C37.8889 18.6444 38.5776 19.8795 39.7262 20.6176C37.4808 20.5393 35.7194 19.087 35.7147 17.325C35.7194 15.5666 37.4755 14.1208 39.7156 14.0324H39.7154ZM46.8908 9.73428C47.1714 9.73428 47.4514 9.75385 47.7273 9.7936C46.4334 10.3103 45.4676 11.3889 45.1579 12.6733C44.8435 13.963 45.222 15.2965 46.1718 16.2375C43.9958 15.7398 42.6122 13.9921 43.0317 12.2693C43.3858 10.8176 44.9301 9.78297 46.8071 9.73376C46.8367 9.73436 46.8622 9.73436 46.8907 9.73436L46.8908 9.73428ZM29.8659 0.604773C29.3148 0.590535 29.0543 0.738255 28.7441 1.37303C27.4247 4.10977 26.8492 9.60679 26.7407 12.6673C24.8554 14.1641 23.0252 15.7783 21.0859 17.3968C18.6488 19.4256 17.5365 18.5886 15.0069 17.5053L3.91021 12.7575C1.4637 11.7092 -0.303639 13.4368 1.10953 16.3449C4.35763 23.0546 5.30258 28.3114 1.10953 36.6123C-0.346892 39.4925 1.4637 41.2438 3.91021 40.1955L15.0081 35.4519C17.5377 34.3633 18.6512 33.5268 21.0871 35.5587C21.9527 36.2837 22.7992 37.0063 23.6416 37.7199C22.6088 39.6848 21.6334 42.75 21.5789 45.3051C21.5498 46.9882 21.6821 47.712 23.7194 48.037C26.9485 48.5537 31.4618 48.4197 35.7885 47.1798C33.1842 45.8906 31.0721 44.6157 30.0731 42.7155C34.08 45.3341 38.6764 47.1596 45.1785 47.1596C58.5604 47.1596 69.6937 39.4182 73.8611 32.1634C74.5706 30.844 74.7379 30.5391 73.0145 29.8888L70.0216 28.3837L75.5886 25.7711C75.0072 19.3877 66.7782 10.7008 55.2423 7.27453C53.5443 11.8668 52.4949 17.6049 52.4071 22.641C52.5311 29.7861 54.5813 36.5142 57.6924 41.1998C52.136 39.423 50.1523 26.9463 50.1523 22.641C50.1523 19.667 50.8517 11.9109 53.2716 6.81132C50.6293 6.16586 48.0848 5.79745 45.176 5.79745C40.7509 5.79745 37.2117 6.64402 34.1416 8.00795C36.8587 5.58574 38.5369 5.15381 43.4883 4.4549C39.2548 2.49605 34.6197 1.13208 30.524 0.664619C30.2701 0.633771 30.0535 0.608262 29.8655 0.603516L29.8659 0.604773Z" fill="#BAFFEC"/>
</svg>
