<svg width="35" height="30" viewBox="0 0 35 30" fill="none" xmlns="http://www.w3.org/2000/svg">
<path d="M14.958 12.1208H20.0052V13.6682H14.958V12.1208Z" fill="white"/>
<path d="M34.9263 22.2525L30.1368 12.5631C30.0262 12.3054 29.7317 12.1211 29.437 12.1211H24.7212V13.6685H28.9579L32.9736 21.8105H2.02644L6.04213 13.6685H10.2788V12.1214H5.56306C5.26829 12.1214 5.01053 12.3056 4.863 12.5634L0.0737556 22.2528C0.0370065 22.3633 0 22.4738 0 22.5843V28.5896C0 29.0316 0.368524 29.3634 0.77381 29.3634H34.2262C34.6682 29.3634 35 28.9949 35 28.5896L34.9997 22.5843C34.9997 22.4738 34.963 22.3633 34.926 22.2528L34.9263 22.2525ZM1.54756 27.8525V23.3945H33.4157V27.8525H1.54756Z" fill="white"/>
<path d="M9.50539 15.9525C9.21063 16.2472 9.21063 16.763 9.50539 17.0578L12.0843 19.6366C12.2315 19.7839 12.4528 19.8577 12.6368 19.8577C12.821 19.8577 13.0421 19.7839 13.1893 19.6366L15.7682 17.0578C16.0629 16.763 16.0629 16.2473 15.7682 15.9525C15.4734 15.6577 14.9576 15.6577 14.6628 15.9525L13.4103 17.205L13.4105 10.6842C13.4105 10.2422 13.079 9.9104 12.6367 9.9104C12.1947 9.9104 11.8629 10.2419 11.8629 10.6842V17.2053L10.6104 15.9527C10.3159 15.6577 9.80011 15.6577 9.50531 15.9525L9.50539 15.9525Z" fill="white"/>
<path d="M19.2316 15.9525C18.9369 16.2472 18.9369 16.763 19.2316 17.0578L21.8105 19.6366C21.9578 19.7839 22.142 19.8577 22.363 19.8577C22.584 19.8577 22.7683 19.7839 22.9155 19.6366L25.4944 17.0578C25.7892 16.763 25.7892 16.2473 25.4944 15.9525C25.1996 15.6577 24.6839 15.6577 24.3891 15.9525L23.1365 17.205L23.1368 10.6842C23.1368 10.2422 22.8053 9.9104 22.363 9.9104C21.921 9.9104 21.5892 10.2419 21.5892 10.6842V17.2053L20.3366 15.9527C20.0421 15.6577 19.5631 15.6577 19.2315 15.9525L19.2316 15.9525Z" fill="white"/>
<path d="M7.2212 9.72624C7.36845 9.8735 7.55272 9.94725 7.77372 9.94725C7.99473 9.94725 8.17899 9.8735 8.32624 9.72624L10.9051 7.14738C11.1999 6.85261 11.1999 6.33686 10.9051 6.04206C10.6103 5.74729 10.0946 5.74729 9.79979 6.04206L8.54723 7.29462L8.54749 0.77381C8.54749 0.331787 8.21597 0 7.77368 0C7.33165 0 6.99987 0.331517 6.99987 0.77381V7.29488L5.74731 6.04232C5.45254 5.74756 4.93679 5.74756 4.64199 6.04232C4.34722 6.33709 4.34722 6.85284 4.64199 7.14764L7.2212 9.72624Z" fill="white"/>
<path d="M16.9474 9.72624C17.0947 9.8735 17.279 9.94725 17.5 9.94725C17.721 9.94725 17.9052 9.8735 18.0525 9.72624L20.6313 7.14738C20.9261 6.85261 20.9261 6.33686 20.6313 6.04206C20.3366 5.74729 19.8208 5.74729 19.526 6.04206L18.2735 7.29462L18.2737 0.77381C18.2737 0.331787 17.9422 0 17.4999 0C17.0579 0 16.7261 0.331517 16.7261 0.77381V7.29488L15.4736 6.04232C15.1788 5.74756 14.663 5.74756 14.3682 6.04232C14.0735 6.33709 14.0735 6.85284 14.3682 7.14764L16.9474 9.72624Z" fill="white"/>
<path d="M26.6737 9.72624C26.8209 9.8735 27.0422 9.94725 27.2262 9.94725C27.4105 9.94725 27.6315 9.8735 27.7787 9.72624L30.3576 7.14738C30.6524 6.85261 30.6524 6.33686 30.3576 6.04206C30.0628 5.74729 29.5471 5.74729 29.2523 6.04206L27.9997 7.29462L28 0.77381C28 0.331787 27.6685 0 27.2262 0C26.7841 0 26.4524 0.331517 26.4524 0.77381V7.29488L25.1998 6.04232C24.905 5.74756 24.3893 5.74756 24.0945 6.04232C23.7997 6.33709 23.7997 6.85284 24.0945 7.14764L26.6737 9.72624Z" fill="white"/>
</svg>
