<svg width="76" height="65" viewBox="0 0 76 65" fill="none" xmlns="http://www.w3.org/2000/svg">
<path d="M26.3127 12.1711C21.9577 5.63459 17.303 0.822266 17.303 0.822266C17.303 0.822266 0.897339 17.7071 0.897339 31.2911C0.897339 38.9598 5.96697 45.2627 12.9909 47.1239C12.7635 45.7785 12.6157 44.4096 12.6157 43.0104C12.6157 32.0465 19.9939 20.2641 26.3127 12.1709L26.3127 12.1711Z" fill="#9B0016"/>
<path d="M59.4913 0.822266C59.4913 0.822266 54.8366 5.63414 50.4819 12.1711C56.8004 20.264 64.179 32.046 64.179 43.0106C64.179 44.4099 64.0311 45.7787 63.8038 47.1237C70.8258 45.2609 75.8973 38.9606 75.8973 31.292C75.8973 17.708 59.4916 0.82317 59.4916 0.82317L59.4913 0.822266Z" fill="#9B0016"/>
<path d="M38.3971 5.50977C38.3971 5.50977 17.303 26.0299 17.303 43.0096C17.303 54.4703 26.9334 64.1038 38.3971 64.1038C49.8579 64.1038 59.4913 54.4708 59.4913 43.0096C59.4913 26.0287 38.3971 5.50977 38.3971 5.50977V5.50977Z" fill="#9B0016"/>
</svg>
