<svg width="23" height="35" viewBox="0 0 23 35" fill="none" xmlns="http://www.w3.org/2000/svg">
<path d="M22.9107 11.4834C22.9203 7.46066 20.8194 3.72756 17.3759 1.64849C13.9323 -0.430592 9.65043 -0.550669 6.09532 1.33146C2.5402 3.21358 0.23312 6.82252 0.0166024 10.8389C-0.199564 14.8556 1.70707 18.6915 5.03931 20.9443V24.1708C4.51465 24.4627 4.11827 24.9406 3.92844 25.5101C3.73859 26.08 3.769 26.7 4.01335 27.2483C4.11865 27.4849 4.26215 27.7022 4.43865 27.8916C4.12087 28.232 3.91064 28.6592 3.835 29.119C3.75936 29.5788 3.82128 30.0504 4.01335 30.4749C4.54506 31.6336 5.60813 31.9421 6.77197 31.9421H8.08531C8.15799 32.5825 8.40826 33.1899 8.80724 33.696C9.20622 34.2021 9.73866 34.587 10.3445 34.8073C10.9938 35.0361 11.6975 35.0616 12.362 34.8814C13.0264 34.7009 13.6205 34.323 14.0654 33.7972C14.5029 33.2689 14.7765 32.6241 14.8518 31.9422H16.6487C16.7158 31.9507 16.7836 31.9507 16.8508 31.9422C18.7433 31.6923 19.8542 29.4598 18.4934 27.9076L18.4507 27.865C18.8579 27.4363 19.0881 26.8698 19.0963 26.2787C19.1041 25.6873 18.8886 25.1152 18.4934 24.6758C18.3176 24.4603 18.1029 24.2798 17.8608 24.1441V20.9545C20.9888 18.8106 22.8738 15.2743 22.9106 11.4823L22.9107 11.4834ZM1.64812 10.282C2.02596 7.13583 3.8918 4.36278 6.6638 2.8277C9.43581 1.29224 12.7766 1.18213 15.6439 2.53144C18.5108 3.88038 20.5557 6.52443 21.1401 9.63873C21.7244 12.753 20.7775 15.9588 18.5943 18.2555C17.9866 18.8306 17.3399 19.3634 16.6595 19.8499C16.0269 20.3497 16.2661 21.5351 16.2661 22.2525V23.8102H13.8207V16.262H15.2186H15.219C15.8375 16.2628 16.4396 16.0614 16.9332 15.6877C17.4263 15.3143 17.7838 14.79 17.951 14.1942C18.1175 13.5367 18.04 12.8411 17.7334 12.236C17.4264 11.6312 16.911 11.1582 16.2821 10.9038C15.6699 10.6583 14.9951 10.6183 14.3584 10.7899C13.7218 10.9616 13.1581 11.3354 12.7525 11.8553C12.3565 12.4593 12.1696 13.1764 12.2208 13.8965V14.6725H10.7273V13.4871C10.7191 12.8104 10.4674 12.159 10.0183 11.6525C9.56932 11.1456 8.95304 10.8178 8.28194 10.7285C7.10168 10.585 5.8844 10.8508 5.15616 11.8553H5.15653C4.75089 12.4256 4.57328 13.1271 4.65893 13.8216C4.74458 14.5161 5.08682 15.1535 5.61888 15.608C6.26924 16.0982 7.07716 16.3311 7.88846 16.2621H9.13241V23.8103H8.5106H6.63399V22.1147V20.738C6.63399 20.0895 6.26171 19.8714 5.75151 19.5155V19.5151C4.30727 18.4821 3.16602 17.0805 2.44708 15.4568C1.7285 13.8328 1.4578 12.0459 1.66398 10.282H1.64812ZM9.12732 14.6514H7.53253C7.19585 14.6822 6.86103 14.5724 6.60852 14.3477C6.35564 14.1234 6.20695 13.8041 6.19806 13.466C6.19806 12.44 7.26109 12.1637 8.09574 12.2857C9.24411 12.4451 9.20699 13.7103 9.1432 14.6514L9.12732 14.6514ZM10.7221 16.2462H12.2212L12.2208 23.8103H10.7273L10.7221 16.2462ZM13.8211 13.2906C13.9698 12.2913 15.3146 11.9405 16.0377 12.5675H16.0374C16.3981 12.8975 16.522 13.4137 16.3499 13.8712C16.1779 14.3287 15.7448 14.6354 15.2562 14.6462C14.7619 14.678 14.2676 14.678 13.7678 14.6728V14.6725C13.747 14.2112 13.7663 13.7485 13.8264 13.2905L13.8211 13.2906ZM13.1244 32.3149L13.0714 32.4265C13.0287 32.5062 12.9809 32.5859 12.9331 32.6604L12.8534 32.7613L12.7577 32.8677L12.5983 33.0164V33.0168C12.5642 33.0386 12.5323 33.0635 12.5026 33.0909L12.2953 33.2133L12.157 33.2822V33.2826C12.0209 33.3304 11.8826 33.3712 11.7425 33.4046H11.1737C11.0309 33.3746 10.8904 33.3338 10.7536 33.2826L10.6472 33.2296L10.4132 33.0913L10.3123 33.0116L10.1796 32.8466L10.0628 32.719L9.98309 32.6182C9.93192 32.5433 9.88558 32.465 9.84479 32.3842C9.82514 32.3479 9.80734 32.3108 9.79176 32.2726C9.74801 32.158 9.71279 32.0408 9.68535 31.9218H13.2309C13.199 32.0598 13.1671 32.1821 13.1245 32.3149H13.1244ZM16.6488 30.3482H6.48547C6.29562 30.3634 6.10467 30.3433 5.92187 30.2896C5.63117 30.1698 5.42835 29.9017 5.39164 29.5892C5.3553 29.2766 5.49101 28.9692 5.74649 28.7853C5.83733 28.7267 5.93818 28.6852 6.04423 28.6633C6.28005 28.6955 6.5181 28.7115 6.75652 28.7111H16.6483C16.7155 28.7193 16.7833 28.7193 16.8504 28.7111H16.9034C16.9861 28.7352 17.0647 28.7712 17.1374 28.8172C17.4092 29.043 17.5171 29.4112 17.4096 29.7479C17.302 30.0845 17.0006 30.3218 16.6483 30.3482L16.6488 30.3482ZM15.8516 27.0366H8.51068H6.28334C6.17655 27.0414 6.07013 27.0522 5.96446 27.0685C5.67339 26.9484 5.47057 26.6803 5.43423 26.3677C5.39789 26.0555 5.5336 25.7478 5.78908 25.5642C5.92479 25.476 6.07978 25.4211 6.2407 25.4048H16.3888C16.6543 25.374 16.9228 25.43 17.1541 25.5642C17.4259 25.7593 17.5579 26.0959 17.4915 26.4241C17.4248 26.7519 17.1723 27.0103 16.8456 27.0845C16.5208 27.0492 16.1945 27.0333 15.8678 27.0366L15.8516 27.0366Z" fill="white"/>
</svg>
