<svg width="37" height="26" viewBox="0 0 37 26" fill="none" xmlns="http://www.w3.org/2000/svg">
<path d="M1.03959 20.9882C1.23517 22.201 2.17236 23.1768 3.37221 23.4158C3.57674 23.4567 3.78046 23.476 3.98038 23.476C5.31037 23.476 6.48522 22.6071 6.84494 21.276C6.87532 21.1629 6.9643 21.0896 7.07117 21.0896H15.0315L16.5107 22.1112C16.6616 23.767 18.0819 25.064 19.7447 25.064H30.5905C32.0819 25.064 33.3341 23.8954 33.3823 22.4612C33.3943 22.1349 33.3463 21.8107 33.2418 21.5042C34.0401 21.2465 34.6831 20.6362 34.951 19.8286C35.1794 19.1477 35.1366 18.4286 34.8463 17.8042C35.5554 17.3064 36 16.4847 36 15.5948C36 14.8737 35.7154 14.2018 35.2242 13.7057C35.7643 13.1596 36.0529 12.3998 35.9908 11.6031C35.8839 10.2091 34.6645 9.1162 33.2157 9.1162H27.5099C27.4183 9.1162 27.3434 9.0416 27.3434 8.94937V3.85449C27.3434 2.28061 26.0628 1 24.4889 1H22.9452C22.2247 1 21.639 1.58593 21.639 2.30666V4.80524C21.639 5.28402 21.5015 5.74982 21.2419 6.15211L17.9278 11.2823C16.9797 12.6139 16.6428 14.134 16.5565 14.7032C16.5115 14.7293 16.4697 14.7613 16.4337 14.7984L15.0285 16.2212H7.07445C6.95156 16.2212 6.86801 16.1178 6.83953 16.0148C6.48363 14.7306 5.30579 13.8335 3.97553 13.8335C2.33464 13.8333 1 15.166 1 16.8044C1 17.4869 1.23139 18.1363 1.64642 18.6582C1.13021 19.3068 0.90289 20.139 1.03879 20.9884L1.03959 20.9882ZM17.2186 15.6641C17.4703 15.4902 17.6412 15.2244 17.6931 14.9217C17.7807 14.4092 18.0707 13.0945 18.8937 11.9375L22.2221 6.78555C22.604 6.19393 22.8061 5.50952 22.8061 4.80585V2.30643C22.8061 2.22939 22.8688 2.16646 22.9458 2.16646H24.4896C25.4203 2.16646 26.1774 2.92353 26.1774 3.85429V8.94945C26.1774 9.68486 26.7756 10.283 27.5104 10.283H33.2162C34.0593 10.283 34.767 10.902 34.8286 11.693C34.8771 12.318 34.5454 12.9029 33.9836 13.1828C33.7856 13.2813 33.6605 13.4826 33.66 13.7036C33.6597 13.9245 33.7837 14.1268 33.9811 14.2258C34.5071 14.4903 34.834 15.0149 34.834 15.5946C34.834 16.2351 34.4271 16.8134 33.8216 17.034C33.6431 17.0988 33.5075 17.2467 33.4576 17.4303C33.4082 17.6134 33.4505 17.8095 33.5723 17.9558C33.9239 18.3781 34.0232 18.9261 33.8442 19.4599C33.6434 20.0654 33.0567 20.4717 32.3834 20.4717H32.3405C32.1165 20.4717 31.9119 20.6 31.8148 20.8018C31.7177 21.0036 31.7446 21.2432 31.884 21.4187C32.1154 21.7087 32.2301 22.0543 32.216 22.4202C32.1889 23.2353 31.4597 23.898 30.5901 23.898L19.7457 23.8978C18.6802 23.8978 17.7701 23.0666 17.6738 22.007C17.6442 21.6761 17.4627 21.372 17.1758 21.1723L15.7383 20.1759L16.7187 19.4627C17.035 19.2324 17.2113 18.8619 17.1904 18.471C17.1722 18.1241 17.0005 17.8094 16.7252 17.6065L16.0921 16.8063L17.2186 15.6641ZM3.97568 14.9998C4.78379 14.9998 5.49934 15.545 5.71587 16.3254C5.88866 16.9507 6.44746 17.3874 7.07488 17.3874H15.0637L15.8661 18.4017C15.912 18.4597 15.9673 18.4817 16.0311 18.5189L14.3967 19.7081C14.3188 19.7648 14.2583 19.8391 14.2171 19.9232L7.07135 19.9229C6.44093 19.9229 5.88455 20.3545 5.71858 20.9724C5.46739 21.9031 4.55727 22.4619 3.59943 22.2712C2.88708 22.1294 2.30792 21.5253 2.19132 20.8028C2.08743 20.1545 2.32479 19.5206 2.82554 19.1061C3.15486 18.8389 3.55227 18.6978 3.97595 18.6978C4.29794 18.6978 4.55916 18.4369 4.55916 18.1146C4.55916 17.7923 4.29794 17.5314 3.97595 17.5314C3.47085 17.5314 2.97415 17.6608 2.53471 17.9016C2.29817 17.5897 2.16768 17.2061 2.16768 16.8041C2.16768 15.8094 2.97879 14.9997 3.97593 14.9997L3.97568 14.9998Z" fill="white" stroke="white" stroke-width="0.5"/>
</svg>
