<svg width="30" height="36" viewBox="0 0 30 36" fill="none" xmlns="http://www.w3.org/2000/svg">
<path d="M8.75057 0C8.10639 0 7.58391 0.522498 7.58391 1.16665C7.58391 1.81123 8.10641 2.3333 8.75057 2.3333H13.4177V5.88826C5.91951 6.48442 0 12.7695 0 20.4185C0 28.4596 6.54342 35.003 14.5844 35.003C22.6255 35.003 29.1689 28.4596 29.1689 20.4185C29.1689 12.7698 23.2493 6.48518 15.7512 5.88826V2.3333H20.4183C21.0629 2.3333 21.585 1.81081 21.585 1.16665C21.585 0.522071 21.0625 0 20.4183 0H8.75057ZM14.5843 8.16708C21.3642 8.16708 26.8353 13.6383 26.8353 20.418C26.8353 27.1975 21.364 32.669 14.5843 32.669C7.80466 32.669 2.33341 27.1977 2.33341 20.418C2.33341 13.6383 7.80466 8.16708 14.5843 8.16708ZM14.5843 11.6676C13.9398 11.6676 13.4177 12.1901 13.4177 12.8342V20.4182C13.4177 20.7405 13.5528 21.0274 13.764 21.2386C15.2769 22.7162 16.7977 24.2658 18.3033 25.7779C18.7591 26.2337 19.4883 26.2337 19.944 25.7779C20.3998 25.3221 20.3998 24.5929 19.944 24.1372L15.751 19.9441V12.8342C15.751 12.1896 15.2285 11.6676 14.5844 11.6676H14.5843Z" fill="white"/>
</svg>
