<svg width="21" height="36" viewBox="0 0 21 36" fill="none" xmlns="http://www.w3.org/2000/svg">
<path d="M4.01539 3.07514V3.87827C2.95035 3.87827 1.92916 4.30121 1.17606 5.05433C0.42318 5.80722 0 6.82862 0 7.89339L0 31.9846C0 33.0497 0.423207 34.0708 1.17606 34.8239C1.92916 35.5768 2.95035 36 4.01539 36H16.8636C17.9286 36 18.9498 35.5768 19.7029 34.8239C20.4558 34.0708 20.879 33.0497 20.879 31.9846V7.89339C20.879 6.82862 20.4558 5.80715 19.7029 5.05433C18.9498 4.30124 17.9286 3.87827 16.8636 3.87827V3.07514C16.8636 2.4363 16.6098 1.82349 16.1581 1.37182C15.7063 0.91984 15.0936 0.666017 14.4545 0.666017H6.42451C5.78539 0.666017 5.17259 0.919833 4.72092 1.37182C4.26921 1.82353 4.01539 2.43631 4.01539 3.07514V3.07514ZM16.8636 5.48426C17.5027 5.48426 18.1155 5.73808 18.5672 6.19006C19.0189 6.64177 19.2727 7.25455 19.2727 7.89339V31.9846C19.2727 32.6237 19.0189 33.2365 18.5672 33.6882C18.1155 34.1399 17.5027 34.3937 16.8636 34.3937H4.01539C3.37627 34.3937 2.76347 34.1399 2.31179 33.6882C1.86012 33.2365 1.60627 32.6237 1.60627 31.9846L1.60627 7.89339C1.60627 7.25454 1.86008 6.64174 2.31179 6.19006C2.7635 5.73809 3.37628 5.48426 4.01539 5.48426H16.8636ZM14.4545 2.272V2.27227C14.6674 2.27227 14.8718 2.3567 15.0223 2.50728C15.1729 2.65811 15.2576 2.86219 15.2576 3.07514V3.87827H5.6211V3.07514C5.6211 2.86219 5.7058 2.65811 5.85637 2.50728C6.00694 2.3567 6.21128 2.27227 6.42424 2.27227L14.4545 2.272Z" fill="white"/>
<path d="M3.21214 8.69667L3.21214 31.182C3.21214 31.6079 3.38126 32.0164 3.68267 32.3175C3.98381 32.6189 4.39226 32.788 4.81813 32.788H16.0612C16.4871 32.788 16.8955 32.6189 17.1966 32.3175C17.498 32.0164 17.6671 31.6079 17.6671 31.182V8.69667C17.6671 8.27077 17.498 7.86208 17.1966 7.56094C16.8955 7.2598 16.487 7.09068 16.0612 7.09068H4.81813C4.39223 7.09068 3.98381 7.2598 3.68267 7.56094C3.38126 7.86208 3.21214 8.27073 3.21214 8.69667V8.69667ZM16.061 31.182H4.818V26.958L16.0603 23.4406L16.061 31.182ZM16.061 21.7548L4.818 25.272L4.818 18.9279L16.0603 15.4104L16.061 21.7548ZM16.061 13.7242L4.818 17.2413L4.818 8.69722H16.061V13.7242Z" fill="white"/>
</svg>
