<svg width="35" height="21" viewBox="0 0 35 21" fill="none" xmlns="http://www.w3.org/2000/svg">
<path d="M32.8125 7.29167H32.0833V5.83335C32.0828 5.25338 31.8519 4.69732 31.4421 4.28711C31.0319 3.87723 30.4758 3.64638 29.8958 3.64584H28.4375V2.18751C28.4369 1.60754 28.2061 1.05148 27.7962 0.641273C27.3861 0.231394 26.83 0.000541663 26.25 0H24.0625C23.4825 0.000542496 22.9265 0.231387 22.5162 0.641273C22.1064 1.05142 21.8755 1.60752 21.875 2.18751V7.29165H13.125V2.18751C13.1245 1.60754 12.8936 1.05148 12.4838 0.641273C12.0736 0.231394 11.5175 0.000541663 10.9375 0H8.75003C8.17006 0.000542496 7.61399 0.231387 7.20379 0.641273C6.79391 1.05142 6.56306 1.60752 6.56251 2.18751V3.64584H5.10419C4.52422 3.64638 3.96815 3.87722 3.55795 4.28711C3.14807 4.69726 2.91722 5.25335 2.91668 5.83335V7.29167H2.18751C1.60755 7.29222 1.05148 7.52306 0.641274 7.93295C0.231394 8.3431 0.000541663 8.89919 0 9.47919V10.9375C0.000542497 11.5175 0.231387 12.0735 0.641274 12.4838C1.05142 12.8936 1.60752 13.1245 2.18751 13.125H2.91668V14.5833C2.91722 15.1633 3.14806 15.7194 3.55795 16.1296C3.9681 16.5395 4.52419 16.7703 5.10419 16.7709H6.56251V18.2292C6.56306 18.8092 6.7939 19.3652 7.20379 19.7754C7.61394 20.1853 8.17003 20.4162 8.75003 20.4167H10.9375C11.5175 20.4162 12.0735 20.1853 12.4838 19.7754C12.8936 19.3653 13.1245 18.8092 13.125 18.2292V13.1251H21.875V18.2292C21.8755 18.8092 22.1064 19.3652 22.5162 19.7754C22.9264 20.1853 23.4825 20.4162 24.0625 20.4167H26.25C26.8299 20.4162 27.386 20.1853 27.7962 19.7754C28.2061 19.3653 28.4369 18.8092 28.4375 18.2292V16.7709H29.8958C30.4758 16.7703 31.0318 16.5395 31.4421 16.1296C31.8519 15.7194 32.0828 15.1633 32.0833 14.5833V13.125H32.8125C33.3925 13.1245 33.9485 12.8936 34.3587 12.4838C34.7686 12.0736 34.9995 11.5175 35 10.9375V9.47919C34.9995 8.89922 34.7686 8.34315 34.3587 7.93295C33.9486 7.52307 33.3925 7.29222 32.8125 7.29167ZM2.18768 11.6666C1.78512 11.6664 1.4588 11.34 1.45852 10.9375V9.47916C1.45879 9.0766 1.78512 8.75028 2.18768 8.75H2.91684V11.6666H2.18768ZM5.10433 15.3125C4.70177 15.3122 4.37544 14.9859 4.37517 14.5833V5.83335C4.37544 5.43079 4.70177 5.10447 5.10433 5.10419H6.56265V15.3125H5.10433ZM11.6668 18.2291C11.6665 18.6317 11.3402 18.958 10.9376 18.9583H8.75014C8.34758 18.958 8.02125 18.6317 8.02098 18.2291V2.18754C8.02125 1.78498 8.34758 1.45866 8.75014 1.45838H10.9376C11.3402 1.45865 11.6665 1.78498 11.6668 2.18754V18.2291ZM13.1251 11.6666V8.75H21.8751V11.6666H13.1251ZM26.9792 18.2291C26.9789 18.6317 26.6526 18.958 26.25 18.9583H24.0625C23.66 18.958 23.3337 18.6317 23.3334 18.2291V2.18754C23.3337 1.78498 23.66 1.45866 24.0625 1.45838H26.25C26.6526 1.45865 26.9789 1.78498 26.9792 2.18754V18.2291ZM30.625 14.5833C30.6247 14.9859 30.2984 15.3122 29.8958 15.3125H28.4375V5.10419H29.8958C30.2984 5.10446 30.6247 5.43079 30.625 5.83335V14.5833ZM33.5416 10.9375C33.5414 11.34 33.215 11.6664 32.8125 11.6666H32.0833V8.75H32.8125C33.215 8.75027 33.5414 9.0766 33.5416 9.47916V10.9375Z" fill="white"/>
</svg>
